<svg width="800" height="800" viewBox="0 0 800 800" fill="none" xmlns="http://www.w3.org/2000/svg">
<g clip-path="url(#clip0_342_2)">
<path d="M105.594 660.913C121.263 681.602 146 692.998 175.237 692.998H606.772C662.96 692.998 718.668 650.561 733.575 596.404L796.279 368.832C804.036 340.667 799.621 313.772 783.868 293.082C768.1 272.393 743.349 261.011 714.127 261.011H671.196L661.789 223.637C652.029 184.726 600.185 154.263 543.786 154.263H385.264C343.913 154.263 315.664 145.801 308.922 141.006C291.166 108.681 212.075 107.017 196.095 107.017H93.5639C64.8494 107.017 39.3364 118.271 21.7354 138.735C4.13439 159.185 -3.21347 186.066 1.31371 215.838L90.7009 625.499C92.6895 638.432 97.6821 650.476 105.594 660.913ZM750.203 318.722C757.777 328.665 759.638 342.472 755.478 357.591L692.788 585.177C683.015 620.69 643.624 650.702 606.772 650.702H175.237C159.554 650.702 146.804 645.258 139.315 635.385C131.826 625.499 130.049 611.748 134.294 596.658L177.408 443.523C187.408 408.011 227.024 377.999 263.905 377.999H401.427C450.929 377.999 506.652 360.073 517.342 325.887C520.106 319.131 549.159 303.322 592.922 303.322H714.113C729.838 303.322 742.644 308.794 750.203 318.722ZM53.8065 166.307C63.2416 155.349 77.3732 149.299 93.578 149.299H196.11C237.461 149.299 265.71 157.761 272.451 162.57C290.221 194.895 369.285 196.559 385.264 196.559H543.8C582.486 196.559 616.348 216.29 620.776 233.933L627.574 260.997H592.936C543.419 260.997 487.711 278.923 477.021 313.109C474.242 319.865 445.189 335.675 401.441 335.675H263.919C207.801 335.675 151.91 377.999 136.692 432.029L111.405 521.882L42.9046 208.138C40.4929 192.13 44.3713 177.266 53.8065 166.307Z" fill="white"/>
</g>
<defs>
<clipPath id="clip0_342_2">
<rect width="800" height="800" fill="white"/>
</clipPath>
</defs>
</svg>
